<svg id="visual" viewBox="0 0 960 540" width="960" height="540" xmlns="http://www.w3.org/2000/svg" xmlns:xlink="http://www.w3.org/1999/xlink" version="1.1"><rect x="0" y="0" width="960" height="540" fill="#001220"></rect><path d="M0 342L22.8 352.3C45.7 362.7 91.3 383.3 137 382.5C182.7 381.7 228.3 359.3 274 347C319.7 334.7 365.3 332.3 411.2 342.2C457 352 503 374 548.8 384.3C594.7 394.7 640.3 393.3 686 385.3C731.7 377.3 777.3 362.7 823 360.8C868.7 359 914.3 370 937.2 375.5L960 381L960 541L937.2 541C914.3 541 868.7 541 823 541C777.3 541 731.7 541 686 541C640.3 541 594.7 541 548.8 541C503 541 457 541 411.2 541C365.3 541 319.7 541 274 541C228.3 541 182.7 541 137 541C91.3 541 45.7 541 22.8 541L0 541Z" fill="#0066ff"></path><path d="M0 399L22.8 399C45.7 399 91.3 399 137 395.3C182.7 391.7 228.3 384.3 274 386C319.7 387.7 365.3 398.3 411.2 402.7C457 407 503 405 548.8 398C594.7 391 640.3 379 686 379.8C731.7 380.7 777.3 394.3 823 398.7C868.7 403 914.3 398 937.2 395.5L960 393L960 541L937.2 541C914.3 541 868.7 541 823 541C777.3 541 731.7 541 686 541C640.3 541 594.7 541 548.8 541C503 541 457 541 411.2 541C365.3 541 319.7 541 274 541C228.3 541 182.7 541 137 541C91.3 541 45.7 541 22.8 541L0 541Z" fill="#0052c5"></path><path d="M0 429L22.8 425C45.7 421 91.3 413 137 413.5C182.7 414 228.3 423 274 423C319.7 423 365.3 414 411.2 413.8C457 413.7 503 422.3 548.8 430.7C594.7 439 640.3 447 686 445.3C731.7 443.7 777.3 432.3 823 430.2C868.7 428 914.3 435 937.2 438.5L960 442L960 541L937.2 541C914.3 541 868.7 541 823 541C777.3 541 731.7 541 686 541C640.3 541 594.7 541 548.8 541C503 541 457 541 411.2 541C365.3 541 319.7 541 274 541C228.3 541 182.7 541 137 541C91.3 541 45.7 541 22.8 541L0 541Z" fill="#003e8c"></path><path d="M0 443L22.8 448.5C45.7 454 91.3 465 137 469.3C182.7 473.7 228.3 471.3 274 473.3C319.7 475.3 365.3 481.7 411.2 478C457 474.3 503 460.7 548.8 455.5C594.7 450.3 640.3 453.7 686 453.5C731.7 453.3 777.3 449.7 823 446.2C868.7 442.7 914.3 439.3 937.2 437.7L960 436L960 541L937.2 541C914.3 541 868.7 541 823 541C777.3 541 731.7 541 686 541C640.3 541 594.7 541 548.8 541C503 541 457 541 411.2 541C365.3 541 319.7 541 274 541C228.3 541 182.7 541 137 541C91.3 541 45.7 541 22.8 541L0 541Z" fill="#002955"></path><path d="M0 506L22.8 505.3C45.7 504.7 91.3 503.3 137 500.5C182.7 497.7 228.3 493.3 274 491.2C319.7 489 365.3 489 411.2 490.5C457 492 503 495 548.8 499.3C594.7 503.7 640.3 509.3 686 508.7C731.7 508 777.3 501 823 500.8C868.7 500.7 914.3 507.3 937.2 510.7L960 514L960 541L937.2 541C914.3 541 868.7 541 823 541C777.3 541 731.7 541 686 541C640.3 541 594.7 541 548.8 541C503 541 457 541 411.2 541C365.3 541 319.7 541 274 541C228.3 541 182.7 541 137 541C91.3 541 45.7 541 22.8 541L0 541Z" fill="#001122"></path></svg>