<svg id="visual" viewBox="0 0 540 960" width="540" height="960" xmlns="http://www.w3.org/2000/svg" xmlns:xlink="http://www.w3.org/1999/xlink" version="1.1"><rect x="0" y="0" width="540" height="960" fill="#001220"></rect><path d="M0 680L12.8 677.7C25.7 675.3 51.3 670.7 77 661.7C102.7 652.7 128.3 639.3 154 646.5C179.7 653.7 205.3 681.3 231.2 691C257 700.7 283 692.3 308.8 688.5C334.7 684.7 360.3 685.3 386 681.3C411.7 677.3 437.3 668.7 463 659.2C488.7 649.7 514.3 639.3 527.2 634.2L540 629L540 961L527.2 961C514.3 961 488.7 961 463 961C437.3 961 411.7 961 386 961C360.3 961 334.7 961 308.8 961C283 961 257 961 231.2 961C205.3 961 179.7 961 154 961C128.3 961 102.7 961 77 961C51.3 961 25.7 961 12.8 961L0 961Z" fill="#0066ff"></path><path d="M0 721L12.8 708.2C25.7 695.3 51.3 669.7 77 661.3C102.7 653 128.3 662 154 678.3C179.7 694.7 205.3 718.3 231.2 722C257 725.7 283 709.3 308.8 696.8C334.7 684.3 360.3 675.7 386 680.3C411.7 685 437.3 703 463 713.8C488.7 724.7 514.3 728.3 527.2 730.2L540 732L540 961L527.2 961C514.3 961 488.7 961 463 961C437.3 961 411.7 961 386 961C360.3 961 334.7 961 308.8 961C283 961 257 961 231.2 961C205.3 961 179.7 961 154 961C128.3 961 102.7 961 77 961C51.3 961 25.7 961 12.8 961L0 961Z" fill="#0052c5"></path><path d="M0 810L12.8 800.8C25.7 791.7 51.3 773.3 77 759.3C102.7 745.3 128.3 735.7 154 731.5C179.7 727.3 205.3 728.7 231.2 740.8C257 753 283 776 308.8 786.3C334.7 796.7 360.3 794.3 386 782.7C411.7 771 437.3 750 463 754.5C488.7 759 514.3 789 527.2 804L540 819L540 961L527.2 961C514.3 961 488.7 961 463 961C437.3 961 411.7 961 386 961C360.3 961 334.7 961 308.8 961C283 961 257 961 231.2 961C205.3 961 179.7 961 154 961C128.3 961 102.7 961 77 961C51.3 961 25.7 961 12.8 961L0 961Z" fill="#003e8c"></path><path d="M0 774L12.8 784.7C25.7 795.3 51.3 816.7 77 817.7C102.7 818.7 128.3 799.3 154 792.2C179.7 785 205.3 790 231.2 803.8C257 817.7 283 840.3 308.8 838.3C334.7 836.3 360.3 809.7 386 797.7C411.7 785.7 437.3 788.3 463 799.3C488.7 810.3 514.3 829.7 527.2 839.3L540 849L540 961L527.2 961C514.3 961 488.7 961 463 961C437.3 961 411.7 961 386 961C360.3 961 334.7 961 308.8 961C283 961 257 961 231.2 961C205.3 961 179.7 961 154 961C128.3 961 102.7 961 77 961C51.3 961 25.7 961 12.8 961L0 961Z" fill="#002955"></path><path d="M0 892L12.8 886.3C25.7 880.7 51.3 869.3 77 868C102.7 866.7 128.3 875.3 154 884.3C179.7 893.3 205.3 902.7 231.2 897.7C257 892.7 283 873.3 308.8 871.5C334.7 869.7 360.3 885.3 386 884.2C411.7 883 437.3 865 463 863.2C488.7 861.3 514.3 875.7 527.2 882.8L540 890L540 961L527.2 961C514.3 961 488.7 961 463 961C437.3 961 411.7 961 386 961C360.3 961 334.7 961 308.8 961C283 961 257 961 231.2 961C205.3 961 179.7 961 154 961C128.3 961 102.7 961 77 961C51.3 961 25.7 961 12.8 961L0 961Z" fill="#001122"></path></svg>